<svg width="128" height="112" viewBox="0 0 128 112" fill="none" xmlns="http://www.w3.org/2000/svg">
<path d="M64 0C58.486 0 54 4.486 54 10C54 15.514 58.486 20 64 20C69.514 20 74 15.514 74 10C74 4.486 69.514 0 64 0ZM64 4C67.308 4 70 6.692 70 10C70 13.308 67.308 16 64 16C60.692 16 58 13.308 58 10C58 6.692 60.692 4 64 4ZM51.9141 22C46.3061 22 41.253 25.3284 39.043 30.4844L27.5195 57.375C27.157 58.2211 26.9628 59.1098 26.918 60H16V50C16 48.894 15.104 48 14 48C12.896 48 12 48.894 12 50V60H8V50C8 48.894 7.104 48 6 48C4.896 48 4 48.894 4 50V60H2C0.896 60 0 60.894 0 62C0 63.106 0.896 64 2 64H4V74C4 75.106 4.896 76 6 76C7.104 76 8 75.106 8 74V64H12V74C12 75.106 12.896 76 14 76C15.104 76 16 75.106 16 74V64H27.832C27.9369 64.1937 28.0376 64.3882 28.1602 64.5742C29.5762 66.7182 31.9573 68 34.5273 68C37.3486 68 39.8839 66.4672 41.2188 64H46.793L41.0547 102.707C40.7087 105.041 41.3955 107.405 42.9375 109.191C44.4795 110.977 46.7147 112 49.2188 112C52.9307 112 56.2112 109.515 57.1992 105.957L63.9961 81.4844L70.8125 106.098C71.7745 109.574 74.9666 112 78.7266 112C81.1526 112 83.4493 110.949 85.0273 109.117C86.5973 107.297 87.2896 104.89 86.9336 102.512C85.1904 90.8592 82.5243 72.8605 81.2109 64H86.7812C88.1161 66.4672 90.6495 68 93.4727 68C96.0427 68 98.4238 66.7182 99.8398 64.5742C99.9624 64.388 100.063 64.1938 100.168 64H112V74C112 75.106 112.896 76 114 76C115.104 76 116 75.106 116 74V64H120V74C120 75.106 120.896 76 122 76C123.104 76 124 75.106 124 74V64H126C127.104 64 128 63.106 128 62C128 60.894 127.104 60 126 60H124V50C124 48.894 123.104 48 122 48C120.896 48 120 48.894 120 50V60H116V50C116 48.894 115.104 48 114 48C112.896 48 112 48.894 112 50V60H101.082C101.037 59.1101 100.843 58.2211 100.48 57.375L88.957 30.4844C86.747 25.3284 81.6978 22 76.0898 22H51.9141ZM51.9141 26H76.0859C80.0919 26 83.7012 28.3766 85.2812 32.0586L96.8047 58.9531C97.2927 60.0931 97.1781 61.3371 96.4961 62.3711C95.8141 63.4051 94.7127 64 93.4727 64C92.0927 64 90.8504 63.2321 90.2344 61.9961L79.7891 41.1055C79.3731 40.2755 78.4511 39.8428 77.5391 40.0508C76.6371 40.2668 76 41.072 76 42V56C76 56.098 76.0074 56.195 76.0234 56.293C76.0234 56.293 76.5182 59.6219 76.5742 60H51.4258L51.9766 56.293C51.9926 56.197 52 56.098 52 56V42C52 41.072 51.3609 40.2687 50.4609 40.0547C49.5529 39.8447 48.6269 40.2755 48.2109 41.1055L37.7656 61.9961C37.1476 63.2301 35.9073 64 34.5273 64C33.2873 64 32.1839 63.4071 31.5039 62.3711C30.8219 61.3371 30.7112 60.0892 31.1992 58.9492L42.7227 32.0586C44.3007 28.3766 47.9101 26 51.9141 26ZM48 50.4727V55.8555L47.3867 60H43.2383L48 50.4727ZM80 50.4727L84.7617 60H80.6172C80.5256 59.3817 80.0309 56.0607 80 55.8516V50.4727ZM50.8359 64H77.168C78.3111 71.711 81.1427 90.8239 82.9805 103.105C83.1625 104.329 82.8041 105.572 81.9961 106.512C81.1801 107.46 79.9882 108 78.5742 108C76.7582 108 75.152 106.777 74.668 105.027L65.9297 73.4648C65.6897 72.5988 64.9 72 64 72C63.102 72 62.3123 72.6008 62.0703 73.4648L53.3477 104.887C52.8377 106.719 51.1383 108 49.0703 108C47.8763 108 46.7448 107.478 45.9648 106.574C45.1828 105.668 44.8377 104.475 45.0117 103.293L50.8359 64Z" fill="white"/>
</svg>
