<svg width="128" height="128" viewBox="0 0 128 128" fill="none" xmlns="http://www.w3.org/2000/svg">
<path d="M68 0C61.3828 0 56 5.38281 56 12C56 18.6172 61.3828 24 68 24C74.6172 24 80 18.6172 80 12C80 5.38281 74.6172 0 68 0ZM68 4C72.4141 4 76 7.58594 76 12C76 16.4141 72.4141 20 68 20C63.5859 20 60 16.4141 60 12C60 7.58594 63.5859 4 68 4ZM56.7266 24.75C55.375 24.8203 54.0156 24.9453 52.6562 25.1406L39.7812 27C36.3594 27.5 33.3828 29.7812 32.0234 32.9609L26.8203 45.1016C25.5625 48.0391 26.6562 51.4844 29.3984 53.125C30.875 54 32.6016 54.2578 34.2578 53.8438C35.9219 53.4219 37.2969 52.3984 38.1797 50.9219L43.3203 42.3594C43.6641 41.7969 44.2656 41.4375 44.9219 41.3984L47.9609 41.2188L43.0703 60.3594C42.7578 60.1484 42.4062 60 42 60C40.8984 60 40 60.8984 40 62V66C40 66.1562 40.0547 66.2969 40.0938 66.4453L35.4375 75.1797C34.4609 77 32.6406 78.1797 30.5781 78.3438L15.5781 79.4766C13.2812 79.6406 11.2812 80.8828 10.0625 82.8203C8.83594 84.7812 8.61719 87.125 9.48438 89.2578C10.6406 92.1641 13.5 93.9453 16.5781 93.7578L36.1953 92.4766C41.5391 92.1406 46.3984 89.4609 49.5625 85.1562L56.8438 75.2422L66.2422 86.4609C67.6953 88.2188 68.8203 90.2188 69.5234 92.3984L72.3438 100.961L9.35938 107.258C4.01563 107.781 0 112.242 0 117.602C0 123.344 4.65625 128 10.3984 128H114C119.523 128 124 123.523 124 118V68C126.203 68 128 66.2031 128 64V48.8203C128 47.5391 127.359 46.3203 126.32 45.5625C125.258 44.8203 123.898 44.6172 122.656 45.0625L92.6562 55.6406C91.0781 56.2031 90 57.7188 90 59.4219V64C90 66.2031 91.7969 68 94 68H110.375L107.438 97.4375L88.3438 99.3594L87.6797 95.3047C86.7812 89.7578 84.7969 84.5625 81.8438 79.8203L73.7578 66.9062C73.8984 66.6328 74 66.3281 74 66V62C74 61.0625 73.3359 60.3047 72.4688 60.0938L75.3203 46.9375L79.8203 50.5781C82.6172 52.875 86.4609 53.4609 89.8438 52.125L102.219 47.1562C105 46.0391 106.539 43.0234 105.82 40.125L105.641 39.3984C104.844 36.1797 101.562 34.2422 98.3594 35.0234L88.4375 37.5234C87.7578 37.6797 87.0391 37.4766 86.5391 36.9766L84.2422 34.6797C80 30.4375 74.6797 27.4219 68.8438 25.9609C64.8516 24.9688 60.7891 24.5625 56.7266 24.75ZM56.9062 28.75C60.5938 28.5781 64.2656 28.9375 67.875 29.8438C73 31.1172 77.6797 33.7812 81.3984 37.5L83.7188 39.8203C85.1953 41.2969 87.375 41.8984 89.3984 41.3984L99.3438 38.9219C100.422 38.6406 101.5 39.2969 101.758 40.3594L101.938 41.1016C102.18 42.0625 101.656 43.0781 100.742 43.4375L88.3438 48.3984C86.3438 49.1953 84.0234 48.8594 82.3438 47.4766L75.3203 41.7812C74.7812 41.3438 74.0547 41.2188 73.3984 41.4375C72.7422 41.6797 72.2578 42.2188 72.1016 42.8984L67.625 63.5625C67.5 64.0781 67.6016 64.6172 67.875 65.0625L78.4375 81.9375C81.1406 86.2188 82.9219 90.9375 83.7422 95.9375L84.3594 99.7578L76.4219 100.539L73.3438 91.1562C72.4609 88.5 71.1016 86.0547 69.3047 83.8984L58.2578 70.7188C57.8828 70.2578 57.3203 70 56.7188 70H56.6562C56.0391 70.0234 55.4844 70.3203 55.125 70.8203L46.3438 82.8047C43.8828 86.1406 40.0781 88.2188 35.9375 88.4766L16.3438 89.7578C14.9609 89.8594 13.7031 89.0625 13.2031 87.7812C12.8203 86.8438 12.8984 85.8047 13.4375 84.9375C13.9844 84.0781 14.875 83.5391 15.875 83.4609L30.8984 82.3203C34.3203 82.0625 37.3438 80.1016 38.9609 77.0625L46.5 62.9375C46.5625 62.8047 46.6172 62.6406 46.6562 62.5L52.1406 40.9766L56.9609 40.6953C58.0625 40.6406 58.8984 39.6797 58.8438 38.5781C58.7578 37.4766 57.8203 36.6172 56.7188 36.6953L44.6797 37.3984C42.7031 37.5156 40.9219 38.6016 39.8984 40.3203L34.7578 48.8594C34.4219 49.4219 33.8984 49.8047 33.2812 49.9609C32.6641 50.1172 32.0234 50.0234 31.4609 49.6797C30.4375 49.0781 30.0234 47.7812 30.4766 46.6797L35.6953 34.5391C36.5156 32.6406 38.2969 31.2578 40.3438 30.9609L53.2188 29.1016C54.4453 28.9297 55.6797 28.8047 56.9062 28.75ZM124 48.8203V64H94V59.4219L111.859 53.1016L120.656 50L124 48.8203ZM12 60C10.8984 60 10 60.8984 10 62V66C10 67.1016 10.8984 68 12 68C13.1016 68 14 67.1016 14 66V62C14 60.8984 13.1016 60 12 60ZM22 60C20.8984 60 20 60.8984 20 62V66C20 67.1016 20.8984 68 22 68C23.1016 68 24 67.1016 24 66V62C24 60.8984 23.1016 60 22 60ZM32 60C30.8984 60 30 60.8984 30 62V66C30 67.1016 30.8984 68 32 68C33.1016 68 34 67.1016 34 66V62C34 60.8984 33.1016 60 32 60ZM52 60C50.8984 60 50 60.8984 50 62V66C50 67.1016 50.8984 68 52 68C53.1016 68 54 67.1016 54 66V62C54 60.8984 53.1016 60 52 60ZM62 60C60.8984 60 60 60.8984 60 62V66C60 67.1016 60.8984 68 62 68C63.1016 68 64 67.1016 64 66V62C64 60.8984 63.1016 60 62 60ZM82 60C80.8984 60 80 60.8984 80 62V66C80 67.1016 80.8984 68 82 68C83.1016 68 84 67.1016 84 66V62C84 60.8984 83.1016 60 82 60ZM114.398 68H120V118C120 121.297 117.297 124 114 124H10.3984C6.875 124 4 121.125 4 117.602C4 114.305 6.48438 111.555 9.76563 111.242L73.625 104.844L77.6953 104.438L85 103.695L89 103.305L107.039 101.5L111.102 101.102L111.5 97.0391L114.398 68ZM10 116C8.89844 116 8 116.898 8 118C8 119.102 8.89844 120 10 120H98C99.1016 120 100 119.102 100 118C100 116.898 99.1016 116 98 116H10ZM106 116C104.898 116 104 116.898 104 118C104 119.102 104.898 120 106 120H114C115.102 120 116 119.102 116 118C116 116.898 115.102 116 114 116H106Z" fill="white"/>
</svg>
