<svg width="200" height="55" viewBox="0 0 200 55" fill="none" xmlns="http://www.w3.org/2000/svg">
<path fill-rule="evenodd" clip-rule="evenodd" d="M58.8281 40.1563V15.5469H61.9922L77.0312 35.3516V15.5469H80.0391V40.1563H76.875L61.8359 20.1562V40.1563H58.8281Z" fill="#050505"/>
<path fill-rule="evenodd" clip-rule="evenodd" d="M104.531 39.1797C102.539 39.9219 100.391 40.3125 98.125 40.3125C89.2187 40.3125 84.7656 36.0547 84.7656 27.5C84.7656 19.4141 89.0625 15.3516 97.6562 15.3516C100.117 15.3516 102.422 15.7031 104.531 16.3672V19.1016C102.422 18.2812 100.234 17.8906 98.0078 17.8906C91.2891 17.8906 87.9297 21.0938 87.9297 27.4219C87.9297 34.2578 91.25 37.6562 97.8516 37.6562C98.9062 37.6562 100.078 37.5 101.367 37.2266V28.9844H104.531V39.1797Z" fill="#050505"/>
<path fill-rule="evenodd" clip-rule="evenodd" d="M109.609 30.6641V15.5469H112.773V30.6641C112.773 35.3906 115.117 37.7734 119.844 37.7734C124.531 37.7734 126.914 35.3906 126.914 30.6641V15.5469H130.078V30.6641C130.078 37.1094 126.68 40.3516 119.844 40.3516C113.008 40.3516 109.609 37.1094 109.609 30.6641Z" fill="#050505"/>
<path fill-rule="evenodd" clip-rule="evenodd" d="M138.906 15.5469V37.5781H151.797V40.1563H135.742V15.5469H138.906Z" fill="#050505"/>
<path fill-rule="evenodd" clip-rule="evenodd" d="M156.367 40.1562H153.047L165.273 12.3047L177.5 40.1562H173.984L170.82 32.4219H162.695L163.555 29.8438H169.766L165.156 18.7109L156.367 40.1562Z" fill="#050505"/>
<path fill-rule="evenodd" clip-rule="evenodd" d="M180.898 40.1563V15.5469H191.406C196.094 15.5469 198.437 17.5 198.437 21.4453C198.437 24.6484 196.133 27.0312 191.562 28.5547L200 40.1563H195.82L188.008 29.1016V27.0313C192.695 26.2891 195.078 24.4922 195.078 21.6016C195.078 19.3359 193.789 18.2031 191.172 18.2031H184.141V40.1563H180.898Z" fill="#050505"/>
<path fill-rule="evenodd" clip-rule="evenodd" d="M0 8.98437L25.1953 0L51.0547 8.82812L46.875 42.1484L25.1953 54.1406L3.86719 42.3047L0 8.98437Z" fill="#050505"/>
<path fill-rule="evenodd" clip-rule="evenodd" d="M51.0547 8.82812L25.1953 0V54.1406L46.875 42.1484L51.0547 8.82812Z" fill="#050505"/>
<path fill-rule="evenodd" clip-rule="evenodd" d="M25.2344 6.32812L9.53125 41.25L15.3906 41.1328L18.5547 33.2422H25.2344H32.5781L36.0156 41.2109L41.6016 41.3281L25.2344 6.32812ZM25.2734 17.5391L30.5859 28.6328H25.5078H25.2344H20.625L25.2734 17.5391Z" fill="white"/>
</svg>
