<svg width="76" height="118" viewBox="0 0 76 118" fill="none" xmlns="http://www.w3.org/2000/svg">
<path d="M13.6523 0C10.4512 0 8 2.80408 8 6C8 8.11598 9.08693 10.0409 10.7422 11.1133L2.37109 22.8359C2.36449 22.8463 2.35798 22.8567 2.35156 22.8672C0.189121 26.007 0 28.6944 0 32.1719V102.953C0 104.846 0.666469 106.677 1.89453 108.109L8.10156 115.352C9.5317 117.022 11.612 117.996 13.8008 117.996H62.1055C64.3664 117.996 66.5053 116.956 67.9375 115.195L74.2383 107.438C74.2396 107.436 74.2409 107.435 74.2422 107.434C75.3821 106.025 76 104.26 76 102.438V32C76 28.6253 75.6264 25.941 73.6836 22.918C73.666 22.8902 73.6478 22.8628 73.6289 22.8359L65.2578 11.1133C66.9131 10.0409 68 8.11598 68 6C68 2.80408 65.5488 0 62.3477 0H13.6523ZM13.6523 4H62.3477C63.1785 4 64 4.77992 64 6C64 7.22008 63.1785 8 62.3477 8H52C51.735 7.99625 51.4719 8.04521 51.2259 8.14404C50.98 8.24287 50.7561 8.38959 50.5674 8.57568C50.3787 8.76177 50.2288 8.98351 50.1265 9.22803C50.0242 9.47254 49.9715 9.73495 49.9715 10C49.9715 10.265 50.0242 10.5275 50.1265 10.772C50.2288 11.0165 50.3787 11.2382 50.5674 11.4243C50.7561 11.6104 50.98 11.7571 51.2259 11.856C51.4719 11.9548 51.735 12.0037 52 12H60.9688L70.3242 25.0977C71.8664 27.5031 72 28.8386 72 32V102.438C72 102.984 71.8765 103.512 71.668 104H4.15625C4.06401 103.662 4 103.313 4 102.953V32.1719C4 28.7514 3.94824 27.6117 5.64453 25.1445C5.64753 25.1401 5.64534 25.1372 5.64844 25.1328L15.0312 12H44C44.265 12.0037 44.5281 11.9548 44.7741 11.856C45.02 11.7571 45.2439 11.6104 45.4326 11.4243C45.6213 11.2382 45.7712 11.0165 45.8735 10.772C45.9758 10.5275 46.0285 10.265 46.0285 10C46.0285 9.73495 45.9758 9.47254 45.8735 9.22803C45.7712 8.98351 45.6213 8.76177 45.4326 8.57568C45.2439 8.38959 45.02 8.24287 44.7741 8.14404C44.5281 8.04521 44.265 7.99625 44 8H14.3047C14.2129 7.98576 14.1202 7.97793 14.0273 7.97656C13.9266 7.97679 13.8261 7.98463 13.7266 8H13.6523C12.8215 8 12 7.22008 12 6C12 4.77992 12.8215 4 13.6523 4ZM12 20C10.8 20 10 20.8 10 22V26C10 27.2 10.8 28 12 28C13.2 28 14 27.2 14 26V22C14 20.8 13.2 20 12 20ZM22 20C20.8 20 20 20.8 20 22V26C20 27.2 20.8 28 22 28C23.2 28 24 27.2 24 26V22C24 20.8 23.2 20 22 20ZM32 20C30.8 20 30 20.8 30 22V26C30 27.2 30.8 28 32 28C33.2 28 34 27.2 34 26V22C34 20.8 33.2 20 32 20ZM44 20C42.8 20 42 20.8 42 22V26C42 27.2 42.8 28 44 28C45.2 28 46 27.2 46 26V22C46 20.8 45.2 20 44 20ZM54 20C52.8 20 52 20.8 52 22V26C52 27.2 52.8 28 54 28C55.2 28 56 27.2 56 26V22C56 20.8 55.2 20 54 20ZM64 20C62.8 20 62 20.8 62 22V26C62 27.2 62.8 28 64 28C65.2 28 66 27.2 66 26V22C66 20.8 65.2 20 64 20ZM34 46C33.6583 46.0002 33.3224 46.0879 33.0243 46.2547C32.7262 46.4216 32.4757 46.662 32.2969 46.9531L16.2969 72.9531C16.1108 73.2561 16.0089 73.6033 16.0016 73.9588C15.9943 74.3143 16.0819 74.6654 16.2554 74.9757C16.4289 75.2861 16.682 75.5447 16.9887 75.7247C17.2953 75.9047 17.6444 75.9998 18 76H27.2227L24.1016 85.3672C23.9695 85.7627 23.9644 86.1896 24.087 86.5882C24.2095 86.9868 24.4535 87.3371 24.7849 87.5902C25.1163 87.8432 25.5185 87.9864 25.9353 87.9996C26.3521 88.0129 26.7626 87.8956 27.1094 87.6641L57.1094 67.6641C57.4664 67.4259 57.7373 67.0792 57.8821 66.6752C58.027 66.2712 58.038 65.8313 57.9136 65.4206C57.7893 65.0098 57.5361 64.65 57.1915 64.3942C56.8469 64.1384 56.4292 64.0002 56 64H46.0859L57.5781 49.2266C57.8075 48.931 57.9494 48.5771 57.9877 48.205C58.026 47.8328 57.9591 47.4574 57.7948 47.1214C57.6304 46.7853 57.3751 46.5021 57.0578 46.3039C56.7406 46.1057 56.3741 46.0004 56 46H34ZM35.1172 50H51.9141L40.4219 64.7734C40.1925 65.069 40.0506 65.4229 40.0123 65.795C39.974 66.1672 40.0409 66.5426 40.2052 66.8786C40.3696 67.2147 40.6249 67.4979 40.9422 67.6961C41.2594 67.8943 41.6259 67.9996 42 68H49.3945L29.7422 81.1016L31.8984 74.6328C31.9987 74.3321 32.026 74.0118 31.9782 73.6984C31.9304 73.385 31.8087 73.0875 31.6233 72.8303C31.4379 72.5732 31.194 72.3638 30.9118 72.2194C30.6295 72.0751 30.317 71.9999 30 72H21.5781L35.1172 50ZM7.07031 108H68.6289L64.832 112.672C64.1363 113.525 63.1434 113.996 62.1055 113.996H13.8008C12.7935 113.996 11.8305 113.556 11.1406 112.75L7.07031 108Z" fill="white"/>
</svg>
