<svg width="123" height="40" viewBox="0 0 123 40" fill="none" xmlns="http://www.w3.org/2000/svg">
<path d="M64.072 29.192C66.448 29.192 68.464 27.968 69.184 26.168V29H71.44V23.048C71.44 21.248 69.856 20.216 68.536 20.216H64.264V22.232H67.912C68.608 22.232 69.04 22.688 69.04 23.336C69.04 25.52 66.712 27.056 64.144 27.056C60.856 27.056 58.432 24.704 58.432 20.6C58.432 16.496 60.856 14.216 64.168 14.216C66.64 14.216 68.56 15.632 68.896 17.672H71.488C71.152 14.36 68.128 12.008 64.168 12.008C59.92 12.008 55.936 14.864 55.936 20.6C55.936 26.336 59.872 29.192 64.072 29.192ZM82.7764 25.064C82.4404 26.432 81.2884 27.2 79.5124 27.2C77.4004 27.2 75.9124 25.64 75.7204 23.36H84.9604C84.9844 23.144 85.0084 22.76 85.0084 22.448C85.0084 19.376 83.0164 16.712 79.2724 16.712C75.5524 16.712 73.4404 19.496 73.4404 22.88C73.4404 26.24 75.7684 29.192 79.5124 29.192C82.4884 29.192 84.6724 27.56 85.1044 25.064H82.7764ZM79.2724 18.584C81.2644 18.584 82.5124 19.808 82.6564 21.656H75.7924C76.1524 19.64 77.3764 18.584 79.2724 18.584ZM88.6066 13.112V16.904H86.1346V18.92H88.6066V25.04C88.6066 27.512 90.1666 29 92.6146 29H94.5106V26.984H92.8066C91.6306 26.984 90.9346 26.264 90.9346 24.968V18.92H94.5106V16.904H90.9346V13.112H88.6066ZM96.7118 29H99.2078V21.632H105.904V19.424H99.2078V14.408H107.488V12.2H96.7118V29ZM109.711 11.84V14.768H112.303V11.84H109.711ZM109.855 29H112.183V16.904H109.855V29ZM116.521 13.112V16.904H114.049V18.92H116.521V25.04C116.521 27.512 118.081 29 120.529 29H122.425V26.984H120.721C119.545 26.984 118.849 26.264 118.849 24.968V18.92H122.425V16.904H118.849V13.112H116.521Z" fill="white"/>
<path d="M12.5 27.9165C12.5 23.623 14.2675 19.7365 17.1095 16.9385C15.578 16.2355 13.8805 15.8335 12.0835 15.8335C5.41 15.8335 0 21.2435 0 27.9165C0 34.59 5.41 40 12.0835 40C13.8805 40 15.5775 39.598 17.1095 38.895C14.2675 36.097 12.5 32.2105 12.5 27.9165Z" fill="url(#paint0_linear)"/>
<path d="M27.9165 27.5C23.623 27.5 19.7365 25.7325 16.9385 22.889C16.2355 24.422 15.8335 26.1195 15.8335 27.9165C15.8335 34.59 21.2435 40 27.9165 40C34.59 40 40 34.59 40 27.9165C40 26.1195 39.598 24.4225 38.895 22.889C36.097 25.7325 32.2105 27.5 27.9165 27.5Z" fill="url(#paint1_linear)"/>
<path d="M27.9165 0C26.1195 0 24.4225 0.402 22.889 1.105C25.7325 3.903 27.5 7.7895 27.5 12.0835C27.5 16.377 25.7325 20.2635 22.889 23.0615C24.422 23.7645 26.1195 24.1665 27.9165 24.1665C34.59 24.1665 40 18.7565 40 12.0835C40 5.41 34.59 0 27.9165 0Z" fill="url(#paint2_linear)"/>
<path d="M12.0835 12.5C16.377 12.5 20.2635 14.2675 23.0615 17.1095C23.7645 15.578 24.1665 13.8805 24.1665 12.0835C24.1665 5.41 18.7565 0 12.0835 0C5.41 0 0 5.41 0 12.0835C0 13.8805 0.402 15.5775 1.105 17.1095C3.903 14.2675 7.7895 12.5 12.0835 12.5Z" fill="url(#paint3_linear)"/>
<defs>
<linearGradient id="paint0_linear" x1="8.55475" y1="15.8335" x2="8.55475" y2="40" gradientUnits="userSpaceOnUse">
<stop stop-color="#9E00FF"/>
<stop offset="1" stop-color="#FF0099"/>
</linearGradient>
<linearGradient id="paint1_linear" x1="27.9167" y1="22.889" x2="27.9167" y2="40" gradientUnits="userSpaceOnUse">
<stop stop-color="#9E00FF"/>
<stop offset="1" stop-color="#FF0099"/>
</linearGradient>
<linearGradient id="paint2_linear" x1="31.4445" y1="0" x2="31.4445" y2="24.1665" gradientUnits="userSpaceOnUse">
<stop stop-color="#9E00FF"/>
<stop offset="1" stop-color="#FF0099"/>
</linearGradient>
<linearGradient id="paint3_linear" x1="12.0832" y1="0" x2="12.0832" y2="17.1095" gradientUnits="userSpaceOnUse">
<stop stop-color="#9E00FF"/>
<stop offset="1" stop-color="#FF0099"/>
</linearGradient>
</defs>
</svg>
