<svg width="200" height="40" viewBox="0 0 200 40" fill="none" xmlns="http://www.w3.org/2000/svg">
<path d="M47.7789 28.8465H49.5529C49.996 28.8465 50.2383 28.7236 50.2383 27.777V16.2221C50.2383 15.2352 50.0767 14.9883 49.5529 14.9883H47.7789V11.904H50.9242C52.8996 11.904 54.7132 11.6985 55.6009 11.4929V15.4407C56.8101 12.8089 58.7454 11.3695 61.7286 11.3695C64.8736 11.3695 66.8894 12.8497 67.5745 15.934C68.6229 12.9731 70.7194 11.3695 74.0256 11.3695C78.2991 11.3695 80.5167 13.7954 80.5167 19.1825V27.7765C80.5167 28.7231 80.7581 28.8461 81.2018 28.8461H82.9753V31.9304H72.8965V28.8461H74.3881C74.8322 28.8461 75.0736 28.7231 75.0736 27.7765V19.512C75.0736 16.4272 74.0656 15.0705 71.8485 15.0705C69.3485 15.0705 68.0991 17.0857 68.0991 20.9101V27.777C68.0991 28.7236 68.341 28.8465 68.7841 28.8465H70.4775V31.9308H60.4793V28.8465H61.9709C62.4145 28.8465 62.6564 28.7236 62.6564 27.777V19.1417C62.6564 16.4277 61.5278 15.0705 59.4308 15.0705C56.9308 15.0705 55.6815 17.0857 55.6815 20.9101V27.777C55.6815 28.7236 55.9238 28.8465 56.367 28.8465H57.9392V31.9308H47.7793V28.8465H47.7789ZM89.5837 22.9661C89.7044 26.7074 91.5189 29.1755 95.1872 29.1755C97.9692 29.1755 99.5815 27.7362 100.509 25.3103L103.574 26.7079C102.485 29.9161 99.8242 32.4658 94.7441 32.4658C87.6079 32.4658 84.0203 28.0651 84.0203 21.897C84.0203 15.6463 88.1723 11.37 94.2203 11.37C100.429 11.37 103.855 15.3178 103.855 21.9383V22.9661H89.5837ZM89.5031 20.17H98.3722C98.2921 16.0987 97.0824 14.5364 94.2203 14.5364C91.3573 14.5364 89.7445 16.2221 89.5031 20.17ZM113.046 15.482C114.296 12.7267 116.553 11.37 119.698 11.37C123.851 11.37 126.068 13.8371 126.068 18.854V27.7774C126.068 28.724 126.31 28.847 126.753 28.847H128.527V31.9313H118.367V28.847H119.94C120.383 28.847 120.625 28.724 120.625 27.7774V18.977C120.625 16.1804 119.617 14.9883 117.4 14.9883C114.699 14.9883 113.126 17.0439 113.126 21.5263V27.777C113.126 28.7236 113.367 28.8465 113.811 28.8465H115.384V31.9308H105.225V28.8465H106.998C107.442 28.8465 107.684 28.7236 107.684 27.777V16.2221C107.684 15.2352 107.522 14.9883 106.998 14.9883H105.225V11.904H108.369C110.344 11.904 112.158 11.6985 113.046 11.4929V15.482ZM131.589 26.2147V14.9883H128.928V12.2335C128.928 12.2335 130.582 12.1101 130.46 12.1101C131.831 11.8632 132.718 11.3287 132.879 9.84846L133.282 6.23008H137.032V11.905H140.942V14.9888H136.911V26.1321C136.911 28.312 137.677 29.0525 139.41 29.0525C140.257 29.0525 140.781 28.8874 141.265 28.7236V31.89C140.499 32.1364 139.169 32.4245 137.758 32.4245C133.323 32.4241 131.589 30.6966 131.589 26.2147ZM142.634 28.8465H144.448C144.892 28.8465 145.093 28.6405 145.093 27.777V16.6337C145.093 15.3586 144.892 14.9883 144.206 14.9883H142.634V11.9045H145.859C147.835 11.9045 149.649 11.6989 150.576 11.4929V27.777C150.576 28.6401 150.778 28.8465 151.222 28.8465H152.915V31.9304H142.634V28.8465H142.634ZM144.407 6.68204C144.407 4.83156 145.738 3.31006 147.795 3.31006C149.77 3.31006 151.181 4.83156 151.181 6.68204C151.181 8.53252 149.77 10.0545 147.795 10.0545C145.738 10.054 144.407 8.53252 144.407 6.68204ZM154.405 21.8966C154.405 15.6463 158.638 11.3695 164.967 11.3695C171.136 11.3695 175.289 15.6055 175.289 21.8966C175.289 28.1881 171.096 32.4654 164.806 32.4654C158.558 32.4654 154.405 28.2299 154.405 21.8966ZM169.846 22.1847V21.6502C169.846 16.8384 168.274 14.6593 164.887 14.6593C161.46 14.6593 159.888 16.8384 159.888 21.6502V22.1847C159.888 26.9965 161.42 29.1751 164.847 29.1751C168.274 29.1751 169.846 26.9552 169.846 22.1847ZM184.519 15.482C185.769 12.7267 188.026 11.37 191.171 11.37C195.324 11.37 197.541 13.8371 197.541 18.854V27.7774C197.541 28.724 197.783 28.847 198.226 28.847H200V31.9313H189.841V28.847H191.413C191.856 28.847 192.098 28.724 192.098 27.7774V18.977C192.098 16.1804 191.09 14.9883 188.873 14.9883C186.172 14.9883 184.599 17.0439 184.599 21.5263V27.777C184.599 28.7236 184.841 28.8465 185.284 28.8465H186.857V31.9308H176.696V28.8465H178.47C178.914 28.8465 179.156 28.7236 179.156 27.777V16.2221C179.156 15.2352 178.994 14.9883 178.47 14.9883H176.696V11.904H179.841C181.817 11.904 183.631 11.6985 184.519 11.4929V15.482H184.519Z" fill="#050505"/>
<path d="M19.1304 0C8.56432 0 0 8.73511 0 19.5122C0 30.2879 8.56432 39.0244 19.1304 39.0244C29.6965 39.0244 38.2603 30.2879 38.2603 19.5122C38.2603 8.73511 29.6965 0 19.1304 0ZM27.711 32.1724L19.1304 25.8441L10.5498 32.1724L13.8207 21.958L5.18811 15.4568H15.878L19.1304 5.20613L22.3828 15.4568H33.0718L24.4396 21.958L27.711 32.1724Z" fill="#050505"/>
</svg>
