<svg width="200" height="48" viewBox="0 0 200 48" fill="none" xmlns="http://www.w3.org/2000/svg">
<path fill-rule="evenodd" clip-rule="evenodd" d="M118.655 0L160.564 44.3916C160.564 44.3916 161.992 45.3986 163.084 44.2238C164.176 43.049 163.336 41.8741 163.336 41.8741L118.655 0Z" fill="#050505"/>
<path fill-rule="evenodd" clip-rule="evenodd" d="M131.925 4.1958L163.84 38.6014C163.84 38.6014 165.267 39.6084 166.359 38.4336C167.451 37.2587 166.611 36.0839 166.611 36.0839L131.925 4.1958Z" fill="#050505"/>
<path fill-rule="evenodd" clip-rule="evenodd" d="M122.603 13.1748L154.517 47.5804C154.517 47.5804 155.945 48.5874 157.037 47.4126C158.129 46.2377 157.289 45.0629 157.289 45.0629L122.603 13.1748Z" fill="#050505"/>
<path fill-rule="evenodd" clip-rule="evenodd" d="M143.143 7.8042L165.44 31.8413C165.44 31.8413 166.437 32.5449 167.2 31.7241C167.963 30.9033 167.376 30.0825 167.376 30.0825L143.143 7.8042Z" fill="#050505"/>
<path fill-rule="evenodd" clip-rule="evenodd" d="M125.674 23.5806L147.971 47.6177C147.971 47.6177 148.968 48.3212 149.731 47.5004C150.494 46.6797 149.907 45.8589 149.907 45.8589L125.674 23.5806Z" fill="#050505"/>
<path fill-rule="evenodd" clip-rule="evenodd" d="M154.601 13.0068L164.707 23.9344C164.707 23.9344 165.2 24.264 165.578 23.8794C165.955 23.4948 165.665 23.1102 165.665 23.1102L154.601 13.0068Z" fill="#050505"/>
<path fill-rule="evenodd" clip-rule="evenodd" d="M131.253 34.6572L141.359 45.5848C141.359 45.5848 141.852 45.9144 142.23 45.5298C142.607 45.1452 142.317 44.7606 142.317 44.7606L131.253 34.6572Z" fill="#050505"/>
<path fill-rule="evenodd" clip-rule="evenodd" d="M174.286 17.9746V47.4409H180.952V37.936H185.952L192.381 47.4409H200L192.857 37.2231C192.857 37.2231 199.2 34.7162 199.2 27.9162C199.2 18.3162 190.476 17.9756 190.476 17.9756L174.286 17.9746ZM180.952 23.6785V32.233H189.524C189.524 32.233 192.8 32.2326 192.8 27.9554C192.8 23.5158 188.81 23.6785 188.81 23.6785H180.952Z" fill="#050505"/>
<path fill-rule="evenodd" clip-rule="evenodd" d="M100.476 17.9756V47.4409H122.857V41.738H107.143V35.5597H120.714V29.8568H107.143V23.674H122.857V17.9756H100.476Z" fill="#050505"/>
<path fill-rule="evenodd" clip-rule="evenodd" d="M68.0952 17.9756V23.6786H76.9048V47.4409H83.5714V23.6786H92.381V17.9756H68.0952Z" fill="#050505"/>
<path fill-rule="evenodd" clip-rule="evenodd" d="M37.619 17.9756V47.4409H60V41.738H44.2857V35.5597H57.8571V29.8568H44.2857V23.674H60V17.9756H37.619Z" fill="#050505"/>
<path fill-rule="evenodd" clip-rule="evenodd" d="M0 17.9751V47.4419L6.6622 47.4414V28.9058L14.7574 40.787L22.8571 28.9058V47.4419H29.5238V17.9751H22.8571L14.7574 30.0939L6.6622 17.9751L0 17.9751Z" fill="#050505"/>
</svg>
