<svg width="200" height="46" viewBox="0 0 200 46" fill="none" xmlns="http://www.w3.org/2000/svg">
<path d="M115.996 17.8619H108.123V18.6971C110.586 18.6971 110.982 19.2249 110.982 22.3478V27.9778C110.982 31.1004 110.586 31.6723 108.123 31.6723C106.233 31.4086 104.957 30.3967 103.197 28.4615L101.174 26.2626C103.901 25.7782 105.352 24.0634 105.352 22.1278C105.352 19.7093 103.286 17.8619 99.4148 17.8619H91.6741V18.6971C94.1367 18.6971 94.5326 19.2249 94.5326 22.3478V27.9778C94.5326 31.1004 94.1367 31.6723 91.6741 31.6723V32.5078H100.426V31.6723C97.9637 31.6723 97.5678 31.1004 97.5678 27.9778V26.3949H98.3152L103.197 32.5078H115.996C122.286 32.5078 125.013 29.1656 125.013 25.1626C125.013 21.1604 122.286 17.8619 115.996 17.8619ZM97.5681 25.0304V19.1815H99.3711C101.35 19.1815 102.23 20.5449 102.23 22.1282C102.23 23.6678 101.35 25.0308 99.3711 25.0308H97.5681V25.0304ZM116.129 31.1445H115.82C114.237 31.1445 114.017 30.7489 114.017 28.7256V19.1815H116.129C120.703 19.1815 121.538 22.5238 121.538 25.1189C121.538 27.8015 120.702 31.1445 116.129 31.1445ZM67.177 26.6586L70.2119 17.6856C71.0919 15.0908 70.6959 14.3434 67.8811 14.3434V13.4634H76.1496V14.3434C73.3789 14.3434 72.7193 15.003 71.6196 18.2137L66.6052 33.2556H66.0337L61.547 19.4889L56.9733 33.2556H56.4015L51.5196 18.2137C50.4641 15.003 49.7604 14.3434 47.2093 14.3434V13.4634H56.9733V14.3434C54.3781 14.3434 53.6741 14.9589 54.5981 17.6856L57.5448 26.6586L61.987 13.4634H62.823L67.177 26.6586ZM82.1304 33.0793C77.2926 33.0793 73.3341 29.5171 73.3341 25.1623C73.3341 20.8523 77.293 17.2893 82.1304 17.2893C86.9685 17.2893 90.9267 20.8523 90.9267 25.1623C90.9267 29.5171 86.9685 33.0793 82.1304 33.0793ZM82.1304 18.6537C78.0844 18.6537 76.6767 22.3037 76.6767 25.1626C76.6767 28.066 78.0844 31.6723 82.1304 31.6723C86.2211 31.6723 87.6285 28.066 87.6285 25.1626C87.6285 22.3037 86.2211 18.6537 82.1304 18.6537Z" fill="#050505"/>
<path d="M135.876 31.6281V32.5077H125.804V31.6281C128.751 31.6281 129.278 30.8807 129.278 26.4818V19.4451C129.278 15.0462 128.751 14.3429 125.804 14.3429V13.4629H134.908C139.438 13.4629 141.946 15.794 141.946 18.9173C141.946 21.9521 139.438 24.327 134.908 24.327H132.401V26.4814C132.401 30.8807 132.929 31.6281 135.876 31.6281ZM134.908 15.0462H132.401V22.6996H134.908C137.371 22.6996 138.514 20.9844 138.514 18.9173C138.514 16.8062 137.371 15.0462 134.908 15.0462ZM172.16 28.3736L171.94 29.1651C171.545 30.6166 171.06 31.1444 167.938 31.1444H167.322C165.035 31.1444 164.639 30.6166 164.639 27.494V25.471C168.07 25.471 168.334 25.7784 168.334 28.0659H169.17V21.5121H168.334C168.334 23.7992 168.07 24.107 164.639 24.107V19.1814H167.058C170.181 19.1814 170.664 19.7092 171.06 21.1607L171.281 21.9959H171.984L171.677 17.8618H158.746V18.697C161.208 18.697 161.604 19.2247 161.604 22.3477V27.9777C161.604 30.8344 161.268 31.554 159.326 31.6566C157.481 31.3747 156.214 30.3681 154.48 28.4614L152.457 26.2625C155.184 25.7781 156.635 24.0633 156.635 22.1277C156.635 19.7092 154.568 17.8618 150.698 17.8618H142.957V18.697C145.42 18.697 145.816 19.2247 145.816 22.3477V27.9777C145.816 31.1003 145.42 31.6721 142.957 31.6721V32.5077H151.71V31.6721C149.247 31.6721 148.851 31.1003 148.851 27.9777V26.3947H149.598L154.48 32.5077H172.557L172.821 28.374H172.16V28.3736ZM148.85 25.0303V19.1814H150.653C152.633 19.1814 153.513 20.5447 153.513 22.1281C153.513 23.6677 152.633 25.0307 150.653 25.0307H148.85V25.0303ZM181.088 33.0792C179.329 33.0792 177.79 32.1559 177.13 31.5836C176.91 31.804 176.514 32.4636 176.427 33.0792H175.591V27.0103H176.47C176.823 29.9129 178.845 31.6281 181.44 31.6281C182.848 31.6281 183.991 30.8366 183.991 29.5173C183.991 28.374 182.98 27.494 181.177 26.6584L178.67 25.471C176.91 24.6347 175.591 23.1833 175.591 21.2484C175.591 19.1373 177.57 17.3344 180.297 17.3344C181.748 17.3344 182.98 17.8621 183.728 18.4777C183.947 18.3018 184.167 17.8177 184.3 17.2896H185.135V22.4799H184.211C183.903 20.4125 182.76 18.6973 180.429 18.6973C179.198 18.6973 178.054 19.401 178.054 20.501C178.054 21.6444 178.977 22.2599 181.089 23.2277L183.507 24.4151C185.619 25.4266 186.454 27.0547 186.454 28.374C186.454 31.1444 184.035 33.0792 181.088 33.0792ZM194.635 33.0792C192.875 33.0792 191.336 32.1559 190.676 31.5836C190.456 31.804 190.061 32.4636 189.973 33.0792H189.137V27.0103H190.017C190.368 29.9129 192.391 31.6281 194.987 31.6281C196.394 31.6281 197.538 30.8366 197.538 29.5173C197.538 28.374 196.526 27.494 194.723 26.6584L192.216 25.471C190.456 24.6347 189.137 23.1833 189.137 21.2484C189.137 19.1373 191.116 17.3344 193.843 17.3344C195.294 17.3344 196.526 17.8621 197.274 18.4777C197.493 18.3018 197.713 17.8177 197.845 17.2896H198.681V22.4799H197.757C197.449 20.4125 196.306 18.6973 193.975 18.6973C192.744 18.6973 191.6 19.401 191.6 20.501C191.6 21.6444 192.523 22.2599 194.635 23.2277L197.053 24.4151C199.165 25.4266 200 27.0547 200 28.374C200 31.1444 197.581 33.0792 194.635 33.0792Z" fill="#050505"/>
<path d="M3.22519 22.6889C3.22519 30.3933 7.70259 37.0515 14.1952 40.2067L4.91037 14.7674C3.83037 17.1881 3.22519 19.867 3.22519 22.6889ZM35.8296 21.7067C35.8296 19.3011 34.9656 17.6352 34.2244 16.3385C33.2378 14.7352 32.313 13.3774 32.313 11.7741C32.313 9.98482 33.67 8.31926 35.5815 8.31926C35.6678 8.31926 35.7496 8.33 35.8337 8.33482C32.3707 5.16222 27.757 3.22519 22.6896 3.22519C15.8896 3.22519 9.90704 6.71407 6.42667 11.9985C6.88333 12.0122 7.3137 12.0219 7.67926 12.0219C9.71519 12.0219 12.8667 11.7748 12.8667 11.7748C13.9159 11.713 14.0396 13.2541 12.9915 13.3781C12.9915 13.3781 11.937 13.5022 10.7637 13.5637L17.8519 34.647L22.1115 21.8719L19.0789 13.563C18.0307 13.5015 17.0378 13.3774 17.0378 13.3774C15.9889 13.3159 16.1119 11.7122 17.1607 11.7741C17.1607 11.7741 20.3752 12.0211 22.2878 12.0211C24.3233 12.0211 27.4752 11.7741 27.4752 11.7741C28.5252 11.7122 28.6485 13.2533 27.6 13.3774C27.6 13.3774 26.5433 13.5015 25.3722 13.563L32.4063 34.4867L34.3478 27.9989C35.1893 25.3067 35.8296 23.373 35.8296 21.7067ZM23.0311 24.3915L17.1911 41.3615C18.9348 41.8741 20.7789 42.1544 22.6896 42.1544C24.9563 42.1544 27.13 41.7626 29.1533 41.0511C29.1011 40.9678 29.0537 40.8793 29.0148 40.783L23.0311 24.3915ZM39.7689 13.3504C39.8526 13.9704 39.9 14.6359 39.9 15.3519C39.9 17.327 39.5311 19.5474 38.42 22.3237L32.4744 39.5137C38.2611 36.1393 42.1533 29.87 42.1533 22.6893C42.1537 19.3052 41.2893 16.123 39.7689 13.3504ZM22.6896 0C10.1789 0 0 10.1781 0 22.6889C0 35.2011 10.1789 45.3789 22.6896 45.3789C35.2 45.3789 45.3804 35.2011 45.3804 22.6889C45.38 10.1781 35.2 0 22.6896 0ZM22.6896 44.3389C10.7526 44.3389 1.04037 34.6267 1.04037 22.6889C1.04037 10.7519 10.7522 1.04037 22.6896 1.04037C34.6263 1.04037 44.3378 10.7519 44.3378 22.6889C44.3378 34.6267 34.6263 44.3389 22.6896 44.3389Z" fill="#050505"/>
</svg>
